<svg width="586" height="146" viewBox="0 0 586 146" fill="none" xmlns="http://www.w3.org/2000/svg">
<rect x="309" y="15" width="250" height="116" rx="16" fill="#3F5172"/>
<path d="M60.1364 60C59.9545 57.7273 59.1023 55.9545 57.5795 54.6818C56.0795 53.4091 53.7955 52.7727 50.7273 52.7727C48.7727 52.7727 47.1705 53.0114 45.9205 53.4886C44.6932 53.9432 43.7841 54.5682 43.1932 55.3636C42.6023 56.1591 42.2955 57.0682 42.2727 58.0909C42.2273 58.9318 42.375 59.6932 42.7159 60.375C43.0795 61.0341 43.6477 61.6364 44.4205 62.1818C45.1932 62.7045 46.1818 63.1818 47.3864 63.6136C48.5909 64.0455 50.0227 64.4318 51.6818 64.7727L57.4091 66C61.2727 66.8182 64.5795 67.8977 67.3295 69.2386C70.0795 70.5795 72.3295 72.1591 74.0795 73.9773C75.8295 75.7727 77.1136 77.7955 77.9318 80.0455C78.7727 82.2955 79.2045 84.75 79.2273 87.4091C79.2045 92 78.0568 95.8864 75.7841 99.0682C73.5114 102.25 70.2614 104.67 66.0341 106.33C61.8295 107.989 56.7727 108.818 50.8636 108.818C44.7955 108.818 39.5 107.92 34.9773 106.125C30.4773 104.33 26.9773 101.568 24.4773 97.8409C22 94.0909 20.75 89.2955 20.7273 83.4545H38.7273C38.8409 85.5909 39.375 87.3864 40.3295 88.8409C41.2841 90.2955 42.625 91.3977 44.3523 92.1477C46.1023 92.8977 48.1818 93.2727 50.5909 93.2727C52.6136 93.2727 54.3068 93.0227 55.6705 92.5227C57.0341 92.0227 58.0682 91.3295 58.7727 90.4432C59.4773 89.5568 59.8409 88.5455 59.8636 87.4091C59.8409 86.3409 59.4886 85.4091 58.8068 84.6136C58.1477 83.7955 57.0568 83.0682 55.5341 82.4318C54.0114 81.7727 51.9545 81.1591 49.3636 80.5909L42.4091 79.0909C36.2273 77.75 31.3523 75.5114 27.7841 72.375C24.2386 69.2159 22.4773 64.9091 22.5 59.4545C22.4773 55.0227 23.6591 51.1477 26.0455 47.8295C28.4545 44.4886 31.7841 41.8864 36.0341 40.0227C40.3068 38.1591 45.2045 37.2273 50.7273 37.2273C56.3636 37.2273 61.2386 38.1705 65.3523 40.0568C69.4659 41.9432 72.6364 44.6023 74.8636 48.0341C77.1136 51.4432 78.25 55.4318 78.2727 60H60.1364Z" fill="white"/>
<path d="M105.528 38.1818L119.847 87.4091H120.392L134.71 38.1818H156.119L133.074 108H107.165L84.1193 38.1818H105.528Z" fill="#0088FF"/>
<path d="M226.074 73.0909C226.074 80.8636 224.563 87.4205 221.54 92.7614C218.517 98.0795 214.438 102.114 209.301 104.864C204.165 107.591 198.438 108.955 192.119 108.955C185.756 108.955 180.006 107.58 174.869 104.83C169.756 102.057 165.688 98.0114 162.665 92.6932C159.665 87.3523 158.165 80.8182 158.165 73.0909C158.165 65.3182 159.665 58.7727 162.665 53.4545C165.688 48.1136 169.756 44.0795 174.869 41.3523C180.006 38.6023 185.756 37.2273 192.119 37.2273C198.438 37.2273 204.165 38.6023 209.301 41.3523C214.438 44.0795 218.517 48.1136 221.54 53.4545C224.563 58.7727 226.074 65.3182 226.074 73.0909ZM206.574 73.0909C206.574 68.9091 206.017 65.3864 204.903 62.5227C203.812 59.6364 202.188 57.4545 200.028 55.9773C197.892 54.4773 195.256 53.7273 192.119 53.7273C188.983 53.7273 186.335 54.4773 184.176 55.9773C182.04 57.4545 180.415 59.6364 179.301 62.5227C178.21 65.3864 177.665 68.9091 177.665 73.0909C177.665 77.2727 178.21 80.8068 179.301 83.6932C180.415 86.5568 182.04 88.7386 184.176 90.2386C186.335 91.7159 188.983 92.4545 192.119 92.4545C195.256 92.4545 197.892 91.7159 200.028 90.2386C202.188 88.7386 203.812 86.5568 204.903 83.6932C206.017 80.8068 206.574 77.2727 206.574 73.0909Z" fill="#FF4444"/>
<path d="M265.253 108V69.6818H258.162C255.798 69.6818 254.06 70.2273 252.946 71.3182C251.832 72.4091 251.298 73.5 251.344 74.5909C251.298 75.75 251.866 76.8409 253.048 77.8636C254.23 78.8636 256.071 79.3636 258.571 79.3636H271.935V90.6818H258.571C253.457 90.6818 249.026 89.9659 245.276 88.5341C241.526 87.1023 238.639 85.125 236.616 82.6023C234.594 80.0795 233.594 77.1818 233.616 73.9091C233.594 70.3636 234.571 67.2159 236.548 64.4659C238.548 61.7159 241.389 59.5568 245.071 57.9886C248.776 56.4205 253.139 55.6364 258.162 55.6364H282.707V108H265.253ZM233.071 108L247.389 79.9091H264.707L250.389 108H233.071Z" fill="#3F5172"/>
<path d="M362.114 46.4545H369.068V80.6364H369.5L393.182 46.4545H399.682V93H392.659V58.8636H392.227L368.591 93H362.114V46.4545ZM431.699 58.0909V63.9545H416.085V93H409.381V58.0909H431.699ZM438.881 106.091V58.0909H445.517V63.75H446.085C446.479 63.0227 447.047 62.1818 447.79 61.2273C448.532 60.2727 449.563 59.4394 450.881 58.7273C452.199 58 453.941 57.6364 456.108 57.6364C458.926 57.6364 461.441 58.3485 463.653 59.7727C465.866 61.197 467.6 63.25 468.858 65.9318C470.131 68.6136 470.767 71.8409 470.767 75.6136C470.767 79.3864 470.138 82.6212 468.881 85.3182C467.623 88 465.896 90.0682 463.699 91.5227C461.502 92.9621 458.994 93.6818 456.176 93.6818C454.055 93.6818 452.32 93.3258 450.972 92.6136C449.638 91.9015 448.593 91.0682 447.835 90.1136C447.078 89.1591 446.494 88.3106 446.085 87.5682H445.676V106.091H438.881ZM445.54 75.5455C445.54 78 445.896 80.1515 446.608 82C447.32 83.8485 448.35 85.2955 449.699 86.3409C451.047 87.3712 452.699 87.8864 454.653 87.8864C456.684 87.8864 458.381 87.3485 459.744 86.2727C461.108 85.1818 462.138 83.7045 462.835 81.8409C463.547 79.9773 463.903 77.8788 463.903 75.5455C463.903 73.2424 463.555 71.1742 462.858 69.3409C462.176 67.5076 461.146 66.0606 459.767 65C458.403 63.9394 456.699 63.4091 454.653 63.4091C452.684 63.4091 451.017 63.9167 449.653 64.9318C448.305 65.947 447.282 67.3636 446.585 69.1818C445.888 71 445.54 73.1212 445.54 75.5455ZM488.54 93.7727C486.328 93.7727 484.328 93.3636 482.54 92.5455C480.752 91.7121 479.335 90.5076 478.29 88.9318C477.259 87.3561 476.744 85.4242 476.744 83.1364C476.744 81.1667 477.123 79.5455 477.881 78.2727C478.638 77 479.661 75.9924 480.949 75.25C482.237 74.5076 483.676 73.947 485.267 73.5682C486.858 73.1894 488.479 72.9015 490.131 72.7045C492.222 72.4621 493.919 72.2652 495.222 72.1136C496.525 71.947 497.472 71.6818 498.062 71.3182C498.653 70.9545 498.949 70.3636 498.949 69.5455V69.3864C498.949 67.4015 498.388 65.8636 497.267 64.7727C496.161 63.6818 494.509 63.1364 492.312 63.1364C490.025 63.1364 488.222 63.6439 486.903 64.6591C485.6 65.6591 484.699 66.7727 484.199 68L477.812 66.5455C478.57 64.4242 479.676 62.7121 481.131 61.4091C482.6 60.0909 484.29 59.1364 486.199 58.5455C488.108 57.9394 490.116 57.6364 492.222 57.6364C493.616 57.6364 495.093 57.803 496.653 58.1364C498.229 58.4545 499.699 59.0455 501.062 59.9091C502.441 60.7727 503.57 62.0076 504.449 63.6136C505.328 65.2045 505.767 67.2727 505.767 69.8182V93H499.131V88.2273H498.858C498.419 89.1061 497.759 89.9697 496.881 90.8182C496.002 91.6667 494.873 92.3712 493.494 92.9318C492.116 93.4924 490.464 93.7727 488.54 93.7727ZM490.017 88.3182C491.896 88.3182 493.502 87.947 494.835 87.2045C496.184 86.4621 497.206 85.4924 497.903 84.2955C498.616 83.0833 498.972 81.7879 498.972 80.4091V75.9091C498.729 76.1515 498.259 76.3788 497.562 76.5909C496.881 76.7879 496.1 76.9621 495.222 77.1136C494.343 77.25 493.487 77.3788 492.653 77.5C491.82 77.6061 491.123 77.697 490.562 77.7727C489.244 77.9394 488.04 78.2197 486.949 78.6136C485.873 79.0076 485.009 79.5758 484.358 80.3182C483.722 81.0455 483.403 82.0152 483.403 83.2273C483.403 84.9091 484.025 86.1818 485.267 87.0455C486.509 87.8939 488.093 88.3182 490.017 88.3182Z" fill="white"/>
</svg>
